<svg xmlns="http://www.w3.org/2000/svg" width="33.832" height="40" viewBox="0 0 33.832 40"><defs><style>.a{fill:#df8300;}</style></defs><g transform="translate(-39.471)"><path class="a" d="M192.172,2.344h.977V5.071a18.991,18.991,0,0,1,5.859,0V2.344h.977a1.172,1.172,0,1,0,0-2.344h-7.812a1.172,1.172,0,1,0,0,2.344Z" transform="translate(-139.69)"/><path class="a" d="M71.3,97.425a1.172,1.172,0,0,0,1.657-1.657L70.2,93.005a1.172,1.172,0,0,0-1.657,1.657l.553.553-1.351,1.351a16.4,16.4,0,0,0-22.711,0l-1.351-1.351.553-.553a1.172,1.172,0,0,0-1.657-1.657l-2.763,2.762a1.172,1.172,0,1,0,1.657,1.657l.553-.553,1.433,1.433a16.406,16.406,0,1,0,25.861,0l1.433-1.433Zm-5.353,4.107a1.172,1.172,0,1,1-.429,1.6A1.172,1.172,0,0,1,65.951,101.532Zm-9.563-6.016a1.172,1.172,0,1,1-1.172,1.172A1.172,1.172,0,0,1,56.388,95.516Zm-6.445,1.727a1.172,1.172,0,1,1-.429,1.6A1.172,1.172,0,0,1,49.942,97.243Zm-5.273,12.335a1.172,1.172,0,1,1,1.172-1.172A1.172,1.172,0,0,1,44.669,109.578Zm2.156,5.7a1.172,1.172,0,1,1,.429-1.6A1.172,1.172,0,0,1,46.825,115.28Zm.429-12.148a1.172,1.172,0,1,1-.429-1.6,1.172,1.172,0,0,1,.429,1.6Zm4.289,16.008a1.172,1.172,0,1,1-.429-1.6A1.172,1.172,0,0,1,51.543,119.141Zm4.845,2.156a1.172,1.172,0,1,1,1.172-1.172A1.172,1.172,0,0,1,56.388,121.3Zm0-9.375a3.512,3.512,0,0,1-3.456-4.158l-3.219-1.859a1.172,1.172,0,0,1,1.172-2.03l3.221,1.86a3.515,3.515,0,1,1,2.282,6.186Zm6.445,7.648a1.172,1.172,0,1,1,.429-1.6A1.172,1.172,0,0,1,62.833,119.57Zm.429-20.726a1.172,1.172,0,1,1-.429-1.6A1.172,1.172,0,0,1,63.262,98.843Zm4.289,16.008a1.172,1.172,0,1,1-.429-1.6A1.172,1.172,0,0,1,67.551,114.852Zm.555-5.273a1.172,1.172,0,1,1,1.172-1.172A1.172,1.172,0,0,1,68.106,109.578Z" transform="translate(0 -84.813)"/><circle class="a" cx="1.172" cy="1.172" r="1.172" transform="translate(55.216 22.422)"/></g></svg>