<svg xmlns="http://www.w3.org/2000/svg" width="50.956" height="33.971" viewBox="0 0 50.956 33.971"><defs><style>.a{fill:#f0f0f0;}.b{fill:#d80027;}.c{fill:#0052b4;}</style></defs><g transform="translate(0 0)"><rect class="a" width="50.955" height="33.971" transform="translate(0 0)"/><path class="b" d="M28.662,85.33H22.293v13.8H0V105.5H22.293v13.8h6.369V105.5H50.955V99.13H28.662Z" transform="translate(0 -85.33)"/><g transform="translate(32.066 23.476)"><path class="c" d="M393.785,315.358l11.146,6.192v-6.192Z" transform="translate(-386.041 -315.358)"/><path class="c" d="M311.652,315.358l18.889,10.494v-2.968l-13.548-7.526Z" transform="translate(-311.652 -315.358)"/><path class="c" d="M325.51,352.7,311.652,345v7.7Z" transform="translate(-311.652 -342.204)"/></g><path class="a" d="M311.652,315.358l18.889,10.494v-2.968l-13.548-7.526Z" transform="translate(-279.586 -291.882)"/><path class="b" d="M311.652,315.358l18.889,10.494v-2.968l-13.548-7.526Z" transform="translate(-279.586 -291.882)"/><g transform="translate(0 23.476)"><path class="c" d="M8.518,315.356,0,320.088v-4.732Z" transform="translate(0 -315.356)"/><path class="c" d="M41.977,329.51v9.16H25.491Z" transform="translate(-23.088 -328.176)"/></g><path class="b" d="M13.548,315.358,0,322.884v2.968H0l18.889-10.494Z" transform="translate(0 -291.882)"/><g transform="translate(0 0)"><path class="c" d="M11.146,137.15,0,130.958v6.192Z" transform="translate(0 -126.656)"/><path class="c" d="M18.889,95.824,0,85.33V88.3l13.548,7.527Z" transform="translate(0 -85.33)"/><path class="c" d="M53.366,85.33l13.858,7.7v-7.7Z" transform="translate(-48.334 -85.33)"/></g><path class="a" d="M18.889,95.824,0,85.33V88.3l13.548,7.527Z" transform="translate(0 -85.33)"/><path class="b" d="M18.889,95.824,0,85.33V88.3l13.548,7.527Z" transform="translate(0 -85.33)"/><g transform="translate(32.066 0)"><path class="c" d="M421.659,151.178l8.518-4.732v4.732Z" transform="translate(-411.287 -140.684)"/><path class="c" d="M311.652,94.491v-9.16h16.486Z" transform="translate(-311.652 -85.331)"/></g><path class="b" d="M316.994,95.824,330.541,88.3V85.33h0L311.652,95.824Z" transform="translate(-279.586 -85.33)"/></g></svg>